<mxfile host="app.diagrams.net" modified="2023-08-12T17:47:39.236Z" agent="Mozilla/5.0 (Macintosh; Intel Mac OS X 10_15_7) AppleWebKit/537.36 (KHTML, like Gecko) Chrome/115.0.0.0 Safari/537.36" version="21.6.8" etag="yRJqSxEurawuRR6PNY6O" type="github">
  <diagram name="Page-1" id="9IDcA_7nOw7cOnzZfFrq">
    <mxGraphModel>
      <root>
        <mxCell id="0" />
        <mxCell id="1" parent="0" />
      </root>
    </mxGraphModel>
  </diagram>
</mxfile>
